<svg width="20" height="16" viewBox="0 0 20 16" fill="none" xmlns="http://www.w3.org/2000/svg">
<path d="M1.75 1.75L7.858 6.362L7.86 6.364C8.538 6.861 8.877 7.11 9.249 7.206C9.57759 7.29102 9.92241 7.29102 10.251 7.206C10.623 7.11 10.963 6.861 11.643 6.362C11.643 6.362 15.56 3.356 17.75 1.75M0.75 11.55V3.95C0.75 2.83 0.75 2.27 0.968 1.842C1.16 1.465 1.465 1.16 1.842 0.968C2.27 0.75 2.83 0.75 3.95 0.75H15.55C16.67 0.75 17.23 0.75 17.657 0.968C18.034 1.16 18.34 1.465 18.532 1.842C18.75 2.269 18.75 2.829 18.75 3.947V11.554C18.75 12.672 18.75 13.23 18.532 13.658C18.34 14.0345 18.0337 14.3404 17.657 14.532C17.23 14.75 16.671 14.75 15.553 14.75H3.947C2.829 14.75 2.269 14.75 1.842 14.532C1.46569 14.3403 1.15974 14.0343 0.968 13.658C0.75 13.23 0.75 12.67 0.75 11.55Z" stroke="black" stroke-width="1.5" stroke-linecap="round" stroke-linejoin="round"/>
</svg>
