<svg width="40" height="30" viewBox="0 0 40 30" fill="none" xmlns="http://www.w3.org/2000/svg">
<path d="M19.6667 22L22 19.6667L16.6667 14.3333V6.66667H13.3333V15.6667L19.6667 22ZM30 29.1667V25.5C32.0556 24.5278 33.6806 23.0972 34.875 21.2083C36.0694 19.3194 36.6667 17.25 36.6667 15C36.6667 12.75 36.0694 10.6806 34.875 8.79167C33.6806 6.90278 32.0556 5.47222 30 4.5V0.833333C33.0278 1.88889 35.4514 3.71528 37.2708 6.3125C39.0903 8.90972 40 11.8056 40 15C40 18.1944 39.0903 21.0903 37.2708 23.6875C35.4514 26.2847 33.0278 28.1111 30 29.1667ZM9.14583 28.8125C7.32639 28.0208 5.74306 26.9514 4.39583 25.6042C3.04861 24.2569 1.97917 22.6736 1.1875 20.8542C0.395833 19.0347 0 17.0833 0 15C0 12.9167 0.395833 10.9653 1.1875 9.14583C1.97917 7.32639 3.04861 5.74306 4.39583 4.39583C5.74306 3.04861 7.32639 1.97917 9.14583 1.1875C10.9653 0.395833 12.9167 0 15 0C17.0833 0 19.0347 0.395833 20.8542 1.1875C22.6736 1.97917 24.2569 3.04861 25.6042 4.39583C26.9514 5.74306 28.0208 7.32639 28.8125 9.14583C29.6042 10.9653 30 12.9167 30 15C30 17.0833 29.6042 19.0347 28.8125 20.8542C28.0208 22.6736 26.9514 24.2569 25.6042 25.6042C24.2569 26.9514 22.6736 28.0208 20.8542 28.8125C19.0347 29.6042 17.0833 30 15 30C12.9167 30 10.9653 29.6042 9.14583 28.8125ZM15 26.6667C18.25 26.6667 21.0069 25.5347 23.2708 23.2708C25.5347 21.0069 26.6667 18.25 26.6667 15C26.6667 11.75 25.5347 8.99306 23.2708 6.72917C21.0069 4.46528 18.25 3.33333 15 3.33333C11.75 3.33333 8.99306 4.46528 6.72917 6.72917C4.46528 8.99306 3.33333 11.75 3.33333 15C3.33333 18.25 4.46528 21.0069 6.72917 23.2708C8.99306 25.5347 11.75 26.6667 15 26.6667Z" fill="#E67E22"/>
</svg>
