<svg width="40" height="40" viewBox="0 0 40 40" fill="none" xmlns="http://www.w3.org/2000/svg">
<path d="M20 40C17.2333 40 14.6333 39.475 12.2 38.425C9.76667 37.375 7.65 35.95 5.85 34.15C4.05 32.35 2.625 30.2333 1.575 27.8C0.525 25.3667 0 22.7667 0 20C0 17.2333 0.525 14.6333 1.575 12.2C2.625 9.76667 4.05 7.65 5.85 5.85C7.65 4.05 9.76667 2.625 12.2 1.575C14.6333 0.525 17.2333 0 20 0C22.1667 0 24.2167 0.316667 26.15 0.95C28.0833 1.58333 29.8667 2.46667 31.5 3.6L28.6 6.55C27.3333 5.75 25.9833 5.125 24.55 4.675C23.1167 4.225 21.6 4 20 4C15.5667 4 11.7917 5.55833 8.675 8.675C5.55833 11.7917 4 15.5667 4 20C4 24.4333 5.55833 28.2083 8.675 31.325C11.7917 34.4417 15.5667 36 20 36C24.4333 36 28.2083 34.4417 31.325 31.325C34.4417 28.2083 36 24.4333 36 20C36 19.4 35.9667 18.8 35.9 18.2C35.8333 17.6 35.7333 17.0167 35.6 16.45L38.85 13.2C39.2167 14.2667 39.5 15.3667 39.7 16.5C39.9 17.6333 40 18.8 40 20C40 22.7667 39.475 25.3667 38.425 27.8C37.375 30.2333 35.95 32.35 34.15 34.15C32.35 35.95 30.2333 37.375 27.8 38.425C25.3667 39.475 22.7667 40 20 40ZM17.2 29.2L8.7 20.7L11.5 17.9L17.2 23.6L37.2 3.55L40 6.35L17.2 29.2Z" fill="#2D6A4F"/>
</svg>
