<svg width="20" height="20" viewBox="0 0 20 20" fill="none" xmlns="http://www.w3.org/2000/svg">
<path d="M9.75 18.75C11.53 18.75 13.2701 18.2222 14.7501 17.2332C16.2302 16.2443 17.3837 14.8387 18.0649 13.1942C18.7461 11.5496 18.9243 9.74002 18.5771 7.99419C18.2298 6.24836 17.3726 4.64472 16.114 3.38604C14.8553 2.12737 13.2516 1.2702 11.5058 0.922937C9.75998 0.57567 7.95038 0.7539 6.30585 1.43509C4.66131 2.11628 3.25571 3.26983 2.26677 4.74987C1.27784 6.22991 0.75 7.96997 0.75 9.75C0.75 11.19 1.088 12.55 1.69 13.757C2.143 14.668 1.513 15.897 1.273 16.794C1.21983 16.9924 1.21982 17.2013 1.27297 17.3997C1.32613 17.5981 1.43057 17.779 1.5758 17.9242C1.72103 18.0694 1.90194 18.1739 2.10033 18.227C2.29872 18.2802 2.50761 18.2802 2.706 18.227C3.603 17.987 4.832 17.357 5.743 17.811C6.98821 18.4293 8.35974 18.7507 9.75 18.75Z" stroke="black" stroke-width="1.5" stroke-linecap="round" stroke-linejoin="round"/>
</svg>
