<svg width="16" height="21" viewBox="0 0 16 21" fill="none" xmlns="http://www.w3.org/2000/svg">
<path d="M5.675 11.7L6.55 8.85L4.25 7H7.1L8 4.2L8.9 7H11.75L9.425 8.85L10.3 11.7L8 9.925L5.675 11.7ZM2 21V13.275C1.36667 12.575 0.875 11.775 0.525 10.875C0.175 9.975 0 9.01667 0 8C0 5.76667 0.775 3.875 2.325 2.325C3.875 0.775 5.76667 0 8 0C10.2333 0 12.125 0.775 13.675 2.325C15.225 3.875 16 5.76667 16 8C16 9.01667 15.825 9.975 15.475 10.875C15.125 11.775 14.6333 12.575 14 13.275V21L8 19L2 21ZM12.25 12.25C13.4167 11.0833 14 9.66667 14 8C14 6.33333 13.4167 4.91667 12.25 3.75C11.0833 2.58333 9.66667 2 8 2C6.33333 2 4.91667 2.58333 3.75 3.75C2.58333 4.91667 2 6.33333 2 8C2 9.66667 2.58333 11.0833 3.75 12.25C4.91667 13.4167 6.33333 14 8 14C9.66667 14 11.0833 13.4167 12.25 12.25ZM4 18.025L8 17L12 18.025V14.925C11.4167 15.2583 10.7875 15.5208 10.1125 15.7125C9.4375 15.9042 8.73333 16 8 16C7.26667 16 6.5625 15.9042 5.8875 15.7125C5.2125 15.5208 4.58333 15.2583 4 14.925V18.025Z" fill="#DCB36B"/>
</svg>
